<svg version="1.2" baseProfile="tiny-ps" xmlns="http://www.w3.org/2000/svg" viewBox="0 0 500 100" width="500" height="100">
	<title>a71289fa6cf50bc0821b-svg</title>
	<style>
		tspan { white-space:pre }
	</style>
	<path id="capyparty" fill="#ffffff" aria-label="capyparty"  d="m47.48 76.02q-13.48 0-20.56-6.84q-7.03-6.89-7.03-20.61q0-13.82 7.47-20.61q7.52-6.84 21.73-6.84q6.6 0 11.88 1.21v12.27q-5.09-1.02-9.75-1.02q-5.38 0-8.78 1.5q-3.35 1.5-4.95 4.8q-1.6 3.25-1.6 8.54q0 8 3.44 11.54q3.44 3.54 10.57 3.54q2.47 0 5.04-0.39q2.57-0.44 6.01-1.36v12.27q-6.11 1.99-13.48 1.99zm40.21-54.9q8.68 0 14.02 2.13q5.34 2.13 7.91 7.03q2.57 4.85 2.57 13.19v31.53h-12.8l-1.07-5.24h-0.73q-2.33 3.15-5.97 4.7q-3.64 1.5-8.1 1.5q-5.34 0-9.22-1.89q-3.88-1.94-5.97-5.38q-2.04-3.49-2.04-8.1q0-7.61 5.29-11.79q5.33-4.17 16.78-4.9l8.63-0.73v-0.68q0-3.69-1.21-5.77q-1.16-2.09-3.78-2.96q-2.57-0.92-7.08-0.92q-3.25 0-7.13 0.53q-3.83 0.53-7.28 1.6v-11.64q3.78-1.07 8.39-1.65q4.61-0.58 8.78-0.58zm0.92 44.09q2.28 0 4.46-0.78q2.18-0.82 3.93-2.57v-9.94l-7.08 0.53q-4.37 0.34-6.35 2.04q-1.99 1.65-1.99 4.66q0 2.96 1.79 4.51q1.79 1.55 5.24 1.55zm34.68 31.14v-74.4h13l0.97 5.63h0.73q2.33-3.01 5.92-4.7q3.64-1.75 8.2-1.75q6.16 0 11.06 2.76q4.9 2.72 7.81 8.63q2.91 5.87 2.91 14.94q0 13.92-7.42 21.24q-7.37 7.28-21.49 7.28q-2.57 0-6.16-0.39v20.76h-15.52zm21.63-32.16q6.79 0 10.04-3.64q3.3-3.69 3.3-11.88q0-8.25-2.76-11.54q-2.76-3.35-7.95-3.35q-2.52 0-4.85 0.92q-2.33 0.87-3.88 2.67v26.24q2.81 0.58 6.11 0.58zm59.75-2.91l12.76-39.33h15.28l-26.24 74.4h-15.23l7.61-21.34h-4.27l-18.62-53.06h16.2l12.51 39.33zm33.71 35.07v-74.4h13l0.97 5.63h0.73q2.33-3.01 5.92-4.7q3.64-1.75 8.2-1.75q6.16 0 11.06 2.76q4.9 2.72 7.81 8.63q2.91 5.87 2.91 14.94q0 13.92-7.42 21.24q-7.37 7.28-21.49 7.28q-2.57 0-6.16-0.39v20.76h-15.52zm21.63-32.16q6.79 0 10.04-3.64q3.3-3.69 3.3-11.88q0-8.25-2.76-11.54q-2.76-3.35-7.95-3.35q-2.52 0-4.85 0.92q-2.33 0.87-3.88 2.67v26.24q2.81 0.58 6.11 0.58zm56.75-43.07q8.68 0 14.02 2.13q5.33 2.13 7.91 7.03q2.57 4.85 2.57 13.19v31.53h-12.8l-1.07-5.24h-0.73q-2.33 3.15-5.97 4.7q-3.64 1.5-8.1 1.5q-5.33 0-9.21-1.89q-3.88-1.94-5.97-5.38q-2.04-3.49-2.04-8.1q0-7.61 5.29-11.79q5.33-4.17 16.78-4.9l8.63-0.73v-0.68q0-3.69-1.21-5.77q-1.16-2.09-3.78-2.96q-2.57-0.92-7.08-0.92q-3.25 0-7.13 0.53q-3.83 0.53-7.27 1.6v-11.64q3.78-1.07 8.39-1.65q4.61-0.58 8.78-0.58zm0.92 44.09q2.28 0 4.46-0.78q2.18-0.82 3.93-2.57v-9.94l-7.08 0.53q-4.37 0.34-6.35 2.04q-1.99 1.65-1.99 4.66q0 2.96 1.79 4.51q1.79 1.55 5.24 1.55zm34.68 9.8v-53.06h12.66l1.21 6.84h0.73q2.18-3.83 5.82-5.67q3.64-1.89 8.25-1.89q2.33 0 4.27 0.39v14.02q-2.13-0.44-5.24-0.44q-3.54 0-6.94 1.36q-3.4 1.36-5.24 3.73v34.73h-15.52zm68.68-11.79q2.04 0 5.58-0.63v12.27q-4.9 1.12-9.8 1.12q-9.8 0-14.89-4.85q-5.04-4.85-5.04-15.04v-21.92h-8.63v-12.22h8.63l2.81-18.72h12.71v18.72h13.92v12.22h-13.92v19.5q0 3.59 0.87 5.67q0.92 2.09 2.76 3.01q1.89 0.87 5 0.87zm32.5-1.94l12.76-39.33h15.28l-26.24 74.4h-15.23l7.61-21.34h-4.27l-18.62-53.06h16.2l12.51 39.33z" />
</svg>