<svg version="1.2" xmlns="http://www.w3.org/2000/svg" viewBox="0 0 71 55" width="71" height="71">
	<title>discord-svg</title>
	<defs>
		<clipPath clipPathUnits="userSpaceOnUse" id="cp1">
			<path d="m0 0h71v55h-71z"/>
		</clipPath>
	</defs>
	<style>
		.s0 { fill: #ffffff } 
	</style>
	<g id="Clip-Path" clip-path="url(#cp1)">
		<g id="Layer">
			<path id="Layer" fill-rule="evenodd" class="s0" d="m60.2 5c8 11.8 12 25.1 10.5 40.4q0 0.1-0.1 0.2c-6.1 4.4-12 7.1-17.8 8.9q-0.1 0.1-0.2-0.1-2-2.8-3.6-5.9c-0.1-0.1 0-0.2 0.1-0.3q2.9-1.1 5.5-2.6c0.2-0.1 0.2-0.3 0.1-0.4q-0.6-0.4-1.1-0.9-0.2 0-0.3 0c-11.5 5.3-24 5.3-35.7 0q-0.1 0-0.2 0-0.5 0.5-1.1 0.9c-0.1 0.1-0.1 0.3 0 0.4q2.7 1.5 5.6 2.6c0.1 0.1 0.2 0.2 0.1 0.3q-1.6 3.1-3.6 5.9-0.1 0.2-0.3 0.1c-5.8-1.8-11.6-4.5-17.7-8.9q-0.1-0.1-0.1-0.2c-1.2-13.3 1.3-26.7 10.5-40.4q0-0.1 0.1-0.1c4.5-2.1 9.4-3.6 14.4-4.5q0.2 0 0.3 0.1c0.6 1.1 1.3 2.6 1.8 3.7q8-1.2 16.2 0c0.5-1.1 1.2-2.6 1.8-3.7q0.1-0.1 0.3-0.1c5 0.9 9.9 2.4 14.4 4.5q0.1 0 0.1 0.1zm-30.1 25.2c0.1-3.9-2.8-7.2-6.4-7.2-3.5 0-6.4 3.2-6.4 7.2 0 3.9 2.9 7.1 6.4 7.1 3.6 0 6.4-3.2 6.4-7.1zm23.6 0c0.1-3.9-2.8-7.2-6.4-7.2-3.5 0-6.4 3.2-6.4 7.2 0 3.9 2.9 7.1 6.4 7.1 3.6 0 6.4-3.2 6.4-7.1z"/>
		</g>
	</g>
</svg>